<?xml version="1.0" encoding="UTF-8"?>
<svg xmlns="http://www.w3.org/2000/svg" xmlns:xlink="http://www.w3.org/1999/xlink" width="18pt" height="18pt" viewBox="0 0 18 18" version="1.1">
<g id="surface1">
<path style="fill:none;stroke-width:32;stroke-linecap:round;stroke-linejoin:round;stroke:rgb(0%,0%,0%);stroke-opacity:1;stroke-miterlimit:4;" d="M 336 208 L 336 113 C 304.888889 81.777778 304.888889 31.222222 336 0 L 336 95 " transform="matrix(0.0351562,0,0,0.0351562,0,0)"/>
<path style="fill:none;stroke-width:32;stroke-linecap:round;stroke-linejoin:round;stroke:rgb(0%,0%,0%);stroke-opacity:1;stroke-miterlimit:4;" d="M 144 208 L 368 208 C 394.555556 208 416 229.444444 416 256 L 416 432 C 416 458.555556 394.555556 480 368 480 L 144 480 C 117.444444 480 96 458.555556 96 432 L 96 256 C 96 229.444444 117.444444 208 144 208 Z M 144 208 " transform="matrix(0.0351562,0,0,0.0351562,0,0)"/>
</g>
</svg>
